<?xml version="1.0" encoding="UTF-8"?><svg xmlns="http://www.w3.org/2000/svg" width="200" height="200" viewBox="0 0 197.31 197.32" shape-rendering="geometricPrecision" text-rendering="geometricPrecision" image-rendering="optimizeQuality" fill-rule="evenodd" clip-rule="evenodd"><defs><style>.fil1{fill:#006282}.fil0{fill:#829bb4}.fil2{fill:#fefefe}</style></defs><g id="图层_x0020_1"><g id="_479984408"><path class="fil0" d="M95.64 22.91l.06-12.81h.88c.01 2.04-.3 11.83.24 12.86l-.06-12.91-1.22-.08c-.18 1.98-.05 4.47-.05 6.43 0 1.1.01 2.11-.06 3.2l.06 2.47c0 .09.01.3.02.37.11.83.02.18.13.47zM100.91 22.94c.49-.87.35-11.05.2-12.78l1.04.05v.16l-.07 12.69.25-3.08c0-2.01.16-8.89-.13-9.93l-.97.05c-.03.01-.08.04-.12.06-.02.04-.05.05-.06.12l-.14 12.66z"/><path class="fil1" d="M105.87 180.96c.21.54.11 1.88.45 3.52-1.35.99-3.04-.98-1.93-2.7.36-.55.65-.86 1.48-.82zm9 1.52c1.25-.31 2.59-1.35 3.41-1.36 1.38-.02 2.65.89 2.57 2.22-1.53 1.04-1.26-.23-2.56-.28-.93-.04-2.24.77-2.77 1.16-.09 3.95.92 3.69 0 7.18-.02.08-.11.36-.14.43-.97 1.78-6.29-1.76-6.48-2.05 5.18.4 5.39.07 5.32-4.86-1.2.33-1.8 1.14-2.59 1.83-.55.49-.44.53-1.27.82-.59.2-1.33.27-1.95.06l-.13-1.07c.58-.39.66-.22 1.39-.83 1.04-.87 2.98-1.94 4.24-2.53-.03-.7-.28-1.52-.58-1.98-.8.4-2.06.73-3.1.27.06-.75 1.38-1.96 2.06-2.37 1.47-.89 1.46-1.21 3.17-.43-.04.96-.3 1.19-.77 1.9-.56.86-.13 1 .18 1.89zm-6.59-13c.52.33.53.34.68 1.55.09.69.2 1.33.31 1.98.19 1.1.72 2.91.55 3.95-.93-.84-1.69-5.78-1.54-7.48zm-30.9 13.99c-.64-.22-.18 0-.51-.28a.812.812 0 0 1-.09-.1l-.26-.32c-.02-.02-.05-.08-.08-.12-1.26.74-1.52 3.05-3.05.41-.53-.93-.11-1.45 0-2.49.22-2.2.26-3.45.92-5.46l.46-.76c.83-.86 2.92-1.73 4.03-2.34.59-.32 1.57-1.7 3.12-.28-.31 1.33-1.34.29-2.79 5.34l-.99 5.02c-.13.62-.24 1.08-.76 1.38zm-2.07-6.34c1.13-.29.86-.5 2.24-.49l.71-2.19c-1.16-.3-.84-.21-1.62.12-.8.35-.97.19-1.95.14l.56 2.25c.02.05.03.12.06.17zm-15.28-6.36c.32.39.15.16-.12.47L58.36 174c-1.9 3.06-.6 7.79-8.01 4.22-1.9-.91-5-3.05-3.25-5.29l2.45-2.46c1.03-.76 1.55-1.55 2.95-1.95l.37 1.18c.86.05 1.58.1 2.41.17 1.05.09 1.2-.34 1.46.97-.85.04-1.7.05-2.55.04-3.1-.04-1.36-1.12-4.4 1.73-.83.77-1.39 1.16-1.79 2.33.63.8 2.14 1.41 3.27 1.97 3.64 1.82 4.34-.96 6.22-3.19l2.54-2.95zm75.78-1.72c-1.87.11-1.58.55-1.81-.62-.39-1.96 1.55-5.22 2.3-5.94.63.13 2.32 1.19 2.07 2.53-.17.9-.41 1.04-.27 2.16.23 1.78 1.23.97 2.3 2.42 1.03 1.41 2.48 3.62.9 4.91-.92-.26-1.42-1.55-2.65-1.84.16.82 2.08 3.6 2.62 4.54.85 1.48 2.36 2.74 2.5 4.95-2.8-.08-2.62-2.26-2.77-2.61l-4.98-8.6c-.56-.99-.51-.95-.21-1.9zm2.59 3.07c.66-.07.87-.05 1.3-.39-.34-1.22-.78-1.79-1.8-2.26-1.74-.8-.55-1.78-1.33-2.99-1.31 1.01 0 1.49-.76 2.57 1.34.43 1.34.1 1.64 1.44.27 1.24.71 1.29.98 2.27.4-.89.17.56.09-.24 0-.01-.12-.14-.12-.4zm-52.73 15.07c0 1.57.34 2.93-1.1 2.67-1.3-.24-2.74-5.4-3.23-6.37-.04.04-.09.05-.1.12l-.58 1.21c-.18.49-.34.89-.52 1.35-.32.8-.86 1.9-1.23 2.55-1.95 3.44-4.23.53-4.41.47.51-.11 2.44.67 3.61-1.84 1.96-4.19 1.88-4.49 3.19-8.68.65-2.08 1.01-2.91 1.02-5.24.02-3.16-.5-2.18 3.56-4.52.65-.37 1.17-.61 1.82-1 .94-.57.92-.84 2.26-.65.05 1.7-.77-.16-1.99 3.94-1.73 5.84-2.01 7.12-2.08 12.98-.01.97-.21 1.94-.22 3.01zm-2.02-15.83zm-38.18-2.64c1.09-.14 4-.56 4.76.62-1 .43-2.01 1.03-3.31.84-1.22-.18-.63-.61-1.63-1.29-.52 1.96-1.87 2.37-2.11 3.1l4.43-1.11c-.27.59-1.75 1.69-2.37 2.08-.76.48-2.46.95-3.49.83-.4-.36-.79-1.15-.93-1.68 0 0 3.15-5.18 5.22-5.26.15 1.48-.15.81-.57 1.87zm70.49 5.32c2.01-.49 1.75-1.49 3.99-1.17.26 1.93-1.52 4.34-3.17 5.17-.1-1.55.37-1.99.65-3.29-1.8.66-1.82 1.13-1.92 1.92-1.18-.13-.81-.9-4.24 1.62-2.32 1.7-2.28 2.49-5.21 2.3.72-.94 1.84-1.3 2.69-2.17-1.17-.68-1.83-5.2-1.75-6.09.08-.88.28-.9.35-.98.73 1.22.14 3.29 1.34 5.27l.55 1.38c1.39-.83.97-.29 1.51-1.73.63-1.69.67-1.65-.01-2.45-.48.2-.14 0-.53.4-.2.21-.14.24-.4.48-.17-1.9 1.55-2.45.16-3.46.51-.47.61.12 1.25-1.49.67-1.64.28-1.8.84-1.8.74 0-.02 1.37 0 2.6 1-.17 1.2-.52 1.3 1 .06 1.02-.26 1.9-.51 2.7.86.85 1.23 1.33 2.12 1.11l.16-1.74c-.39-.26-.38-.18-.71-.49l.03-2.53c.61-.35 1.11.18 1.69-2.76-.74-.01-1.11.54-2.2.64.39-.83 1.1-1.08 2-1.55 2.46-1.28.58-1.04.02 7.11zm-4.01 1.54c-.22.35-.63.94-.79 1.19l2.99-1.24c-.8-.03-1.75-.05-2.2.05zm27.26-10.52c.37.25.06-.04.32.29.16.21.18.29.29.49.46.76 1.31 1.13 1.38 1.99.09 1.12-1.02.42-2.05.03-.22-1.18-.76-1.52.06-2.8zm12.43.94c.5.3.7.43 1.25.72l3.12 2.54c2.4 2.77-.53 3.69-1.49 4.21-6.32 3.43-5.91 3.25-8.46-2.1-.55 2.47.3 6.15-.48 7.01-.6.01-1.11-.8-1.22-1.43-.2-1.16.81-6.79.26-8.17-.85.43-1.04 1.23-1.64 2.14-.85-.32-1.01-.88-.96-2.11 1.14-.84 1-.37 1.95-1.74.53-.77 1.03-1.64 1.08-2.68l-1.38 2.38c-.8 1.04-1.83.55-2.34-.32.15-.35 2.24-2.85 3.16-3.09l.55 1.03c.55-.49.12-.65-.14-1.36-.26-.74-.24-1.24-.71-1.74-.31.45-1.33 1.2-1.84 2.07-.75 1.28-.57 1.9-2.47 2.06.05-1.02-.08-.53.34-1.17.68-1.03 2.17-2.4 3.06-3.53.73-.94.22-1.06.6-2.22 1.24-.36 3.74.24 3.28 1.57-.23.64-.66.57-.96 1.7-.27.97-.41 1.14-.76 2.01.84-.48.8-.38 1.75-.07.57 2.5-1.56 2.71-.88 5.61.23.96.17.56.73.99.51.4.35.2.63 1.27.76 2.93 1.99 2.07 3.9 1.02 4.02-2.22.61-4.13.07-6.6zm-9.39-5.84c-.06.74-.91 2.49-1.53 2.96l-1.35-3.09c.07-1.57 2.44-.14 2.88.13zm-87.99 1.91c2.83-.42 1.85.59 2.76.49.74-.35.41-.33 1.03-.73.71-.46.72-.08 1.12-.89-1.06-.19-2.11-.43-2.66-1.09 1.69-1.39 5.75-.58 7.44.38.07 1.29.11 1.24-1.03 1.39-3.09.42-5.2 2.71-7.41 4.84-.81.78-1.44 1.84-3.02 1.9-.37-1.68.76-1.75-.75-1.85-.51.53-.29.71-1.04.93-.33-.67-1.07-1.76-.85-2.49.61-2.05 3.33-5.77 5.66-5.91-.03 1.68-.81 1.35-1.25 3.03zm122.35-7.26c-14.34 0-28.73.12-43.06 0-2.06-.02-2.19.62-3.8 1.42-4.06 2.04-6.77 3.46-11.39 4.84-16.08 4.79-31.76 4.03-47.11-3-1.26-.58-2.32-1.1-3.51-1.76-.65-.37-1.02-.54-1.7-.95-.89-.53-.99-.56-2.23-.55-14.25.1-28.54.01-42.79 0-1.01-.24-6.24-9.49-7.04-10.92-2.01-3.54-4.16-8.42-5.59-12.5-4.38-12.42-5.71-21.34-5.71-34.87 0-13.92 3.92-27.04 8.83-38.17 3.64-8.26 8.2-14.64 13.67-21.38l5.61-6.27c.99-.99 2.09-1.8 3.05-2.79l6.32-5.36c1.13-.83 2.26-1.62 3.4-2.46C57.52 9.86 78.4 2.68 96.8 2.68h3.58c18.52 0 34.85 5.91 49.58 14.85 1.26.76 2.38 1.65 3.61 2.41 1.48.91 5.26 3.91 6.61 5.09 2.24 1.95 4.21 3.72 6.25 5.63.98.92 1.76 1.88 2.87 2.97l5.32 6.37c4.62 6.12 7.53 10.81 11.12 18.29 4.93 10.26 8.89 25.18 8.89 38.23 0 13.66-1.27 22.06-5.65 34.68-2.32 6.67-6.56 14.99-10.57 20.92-.67.97-1.37 1.77-1.8 2.69zM0 99.72c-.01 26.52 11.77 51.61 28.96 68.78 14.41 14.4 38.47 28.72 68.59 28.82 14.98.01 30.05-3.04 42.14-8.9 8.94-4.33 14.9-7.98 22.5-14.26 2.29-1.89 4.28-3.82 6.26-5.8 1.11-1.12 2.05-1.95 3.06-3.16 1.93-2.3 3.69-4.12 5.58-6.67.44-.6.78-1.08 1.27-1.76.4-.56.88-1.12 1.29-1.71 10.85-16 17.66-34.88 17.66-55.53.01-16.41-3.13-28.53-8.95-41.99-2.61-6.05-7.44-13.91-11.59-19.13l-8.55-9.74c-2.45-2.47-7.17-6.63-9.88-8.59-1.19-.86-2.2-1.61-3.5-2.53-4.78-3.41-9.88-6.08-15.65-8.85C128.15 3.39 112.71.01 98.87 0 76.78-.01 59.49 6.42 42.49 17.52c-3.51 2.29-10.57 8.28-13.39 11.11-4.01 4.04-7.9 8.58-11.16 13.35C6.06 59.36.01 77.1 0 99.72z"/><path class="fil1" d="M59.33 104.99l.03 2.15c10.49 1.76 17.3 4.87 24.6 12.2 3.55 3.58 5.45 5.71 8.33 10.15 1.58 2.44 3.69 6.12 4.9 8.86.45 1.02.92 2.33 1.4 3.3l43.05 3.88c-1.4-4.91-6.81-13.16-10.11-17.21-.84-1.04-1.74-1.91-2.56-2.9-1.71-2.03-3.65-3.62-5.59-5.35-6.42-5.74-16.3-10.83-25.22-13.04-1.15-.28-3.57-.69-4.4-1.06 11.87-3.45 21.17-8.37 29.26-17.16.53-.57.91-.81 1.4-1.42 3.42-4.36 5.37-6.27 8.42-11.94 2.61-4.87 5.12-10.61 6.32-16.77l-54.52-4.83c2.03 6.66 2.86 10.15 1.79 17.79-.74 5.33-2.78 11.09-5.18 14.99-1.27 2.07-2.62 4.31-4.1 5.89-4.47 4.78-8.19 8.07-14.32 10.93-1.08.51-2.56 1.02-3.5 1.54zM160.36 64.68c.23.89 1.25 2.46 1.73 3.49 8.84 18.84 9.66 39.74 1.21 58.85-1.78 4.02-3.83 7.72-6.01 10.95l-7.5 9.41 23.16.03c1.11-.49 4.82-7.91 5.7-9.57 5.18-9.84 8.95-25.42 8.96-36.8 0-10.92-.72-17.74-3.9-28.29-1.77-5.87-4.37-11.92-7.35-17.16-.4-.7-.97-1.58-1.26-2.24-.77.27-1.21.84-1.91 1.36l-9.09 7.13c-.59.45-1.27.9-1.84 1.37-.76.62-1.18.91-1.9 1.47zM24.44 147.38l23.5.03c-2.36-2.95-3.52-3.8-6.17-7.57-14.94-21.24-17.33-46.4-6.82-70.3.71-1.62 1.68-3.1 2.34-4.69-.56-.7-13.55-10.69-14.58-11.42-.98.85-4.35 7.96-5.18 9.81-5.13 11.44-7.84 25.14-7.43 37.99.27 8.68 1.79 18.07 4.48 25.66 3.43 9.69 4.95 12.09 9.86 20.49z"/><path class="fil1" d="M71.11 69.75c.01 8.08-3.32 14.89-7.54 19.18-3.99 4.04-5.19 5.51-10.55 8.87-.51.31-3.87 2.12-4.01 2.67v11.63c3.31.73 7.87 2.94 10.57 4.47 6.11 3.48 12.36 8.31 16.59 13.96 1.49 1.99 4.76 6.83 5.57 9.7l3.24.3c-1.02-4.05-6.04-11.98-9.06-14.85l-3.96-3.95c-5.13-4.36-13.21-9.88-20.03-11.81 0-9.36-.86-7.44 2.76-9.7 1.01-.64 1.8-1.2 2.79-1.92.4-.3.85-.57 1.33-.94 3.73-2.89 3.6-3.2 6.36-5.71.81-.73 1.34-1.63 2.15-2.55 1.14-1.29 2.95-4.25 3.72-5.89 4.37-9.16 3.56-18.02-.05-27.25-.46-1.18-1.07-2.36-1.44-3.46l-3.41-.25c2.32 5.63 4.97 10.25 4.97 17.5zM61.94 35.1c.06-.1-.12.22 0 0zm-8.25-8.46c.07-.13.09.13.04.06 0-.01-.16.18-.04-.06zm5.08-2.62l.36.65-.36-.65zm-2.29-3.34l5.5 14.4c-1.95-2.04-5.18-6.36-7.23-8.87-.76-.94-1.68-2.08-2.33-3.04-.79.26-.97.45-1.6.77l9.19 16.02.97-.39c-.26-.98-2.91-5.3-3.57-6.4L53.8 26.8l6.9 8.54c.82 1.05 1.61 1.92 2.33 2.9l.94-.48c-.89-2.94-4.66-11.45-4.88-13.07.18.19-.08-.14.26.31.06.08.2.28.24.33 1.32 2.04 5.72 10.32 6.51 11.17l.91-.43-9.18-16.06-1.35.67zM104.6 28.75l.97.07 1.81-13.91c.37 1.95 2.18 13.69 2.61 14.5l1.08.16c.31-2.48 2.4-17.25 2.26-18.38l-.89-.09c-.52 1.03-1.54 11.61-1.93 13.83-.49-1.2-1.85-10.75-2.33-13.49-.19-1.08-.29-.98-1.37-1.05-.26 2.77-2.51 17-2.21 18.36zM138.76 28.9c.21-.68 2.75-4.85 3.14-5.25 2.16 1.25 4 1.59 2.16 4.76-2.1 3.63-3.68 1-5.3.49zm-6.38 8.25l.91.44c.86-1.12 3.69-5.68 4.17-6.91.73.25 1.24.64 1.73.97.41 2.28-1.3 6.25-1.68 8.59l1.13.58c.72-.98 1.98-7.1 1.89-8.66 2.91.12 4.6-2.67 5.48-5 .73-1.94.65-2.98-.66-3.89-.76-.53-2.74-1.81-3.55-2.02l-7.05 11.81c-.61 1.01-2.06 3.1-2.37 4.09zM45.24 33.64c.11-.05-.01 0 0 0zm.77-6.4c.36.96 5.3 7.04 6.34 8.35.63.79 1.58 1.91 2.05 2.8-.98-.46-7.32-5.13-8.87-6.17-.97-.65-2.11-1.66-3.02-2.08l-.94.73 8.53 10.92c.6.81 2.29 3.13 2.96 3.6l.72-.55c-.9-1.67-7.85-9.88-8.46-11.14 2.08 1.28 4.04 2.81 6.06 4.18 1.2.83 5.09 3.81 6.06 4.15l.73-.71c-.76-1.17-1.86-2.5-2.8-3.66-1.17-1.44-7.94-10.49-8.73-10.88l-.63.46zM76.1 27.31c.11-.27.13.27.04.09 0-.01-.21.29-.04-.09zm-7.12-7.33c-.05-.31.08.51 0 0zm2.8-5.77c-.06 1.63 3.8 10.43 4.32 13.1-.62-.58-1.7-2.13-2.21-2.9l-5.33-7.29c-.38-.57-.7-.97-1.14-1.39l-.97.32 6 17.5.93-.26c.08-1.39-3.79-10.67-4.32-13.14.59.57 8 10.64 8.42 11.62l1.24-.31-6-17.51-.94.26zM86.45 20l-3.5.71.41 2.09 2.45-.38c.16.97.76 2.86.52 3.67-.28.98-1.18 2.17-2.5 1.97-3.47-.52-5.23-10.88-3.66-13.38.58-.93 1.74-1.58 2.85-.53 1.15 1.07.99 1.93 1.71 2.8l.75-.56c-.13-1.4-1.39-3.72-2.12-4.26-1.76-1.3-3.49-.51-4.31 1.04-2.32 4.43 1.27 20.08 6.92 16.71.99-.58 2.05-2.45 1.62-4.45-.4-1.81-.73-3.69-1.14-5.43zM144.25 37.37l-.87-.47c-1.66 1.28-3.63 6.36-.62 7.44 2.66.96 5.6-2.74 6.38-4.25 2.25-4.43-2.25-5.59.18-8.48.67-.8 2.15-2.22 3.4-.82 1.1 1.25-.39 2.85-.76 3.94l1.06.42c.51-1.15 1.52-2.15 1.71-3.85.59-5.32-6.83-2.7-7.86 2.57-.68 3.46 3.22 4.41-.43 7.86-1.11 1.06-2.94 1.33-3.43-.31-.52-1.78.77-2.97 1.24-4.05zM124.86 33.6l5.65 2.5 1.01-2.02-4.71-2.12 2.54-5.6 4.18 1.8.94-1.94-4.12-1.93 2.2-5.07 4.6 1.99.86-2.14-5.53-2.41zM30.02 42.6l4.42 8.61-3.46-2.55c-1.09-.87-2.36-1.97-3.56-2.68l-.71.98c1.15.51 9.3 7.09 10.94 8.4.53.42 3.44 2.49 3.61 2.77.39-.32.47-.37.7-.82l-.8-.74c-4.88-4.11-2.86-1.12-5.55-5.97l9.23 3.29.76-1.3c-1.5-.35-3.37-1.14-4.83-1.65-1.62-.57-3.19-1.14-4.74-1.67-1.87-.64-1.36-.55-2.89-3.52-.74-1.44-1.55-2.86-2.13-4.29-.4.26-.68.66-.99 1.14zM37.35 34.65c.49.77 5.03 5.15 6.03 6.14 1 1 2.03 1.9 3.03 2.99.64.71 2.46 2.91 1.1 4.2-1.93 1.83-6.48-3.41-7.2-4.13-.82-.82-5.86-5.61-6-6.02-.58.27-.59.3-.85.87 2.37 2.21 4.6 4.6 6.99 6.9.99.94 6.1 6.74 8.76 3.9 2.89-3.08-5.17-9.66-7.58-12.05-.74-.74-2.93-3.14-3.67-3.53l-.61.73zM95.64 22.91c-.47 8.12 6.9 7.83 6.44.15l.07-12.69v-.16l-1.04-.05c.15 1.73.29 11.91-.2 12.78.13 5.09-4.24 4.93-4.09.02-.54-1.03-.23-10.82-.24-12.86h-.88l-.06 12.81zM119.25 31.63l1.07.33c.59-.75 3.6-6.84 4.36-8.23l4.36-8.47-1.2-.29c-.54 1.69-6.84 13.13-7.2 14.36l2.26-16.02-1.22-.3-2.43 18.62zM164.07 51.59l.12.12c-.01 0-.03-.03-.04-.04-.01-.01-.12-.06-.08-.08zm-8.54 5.72c.17.37.25.47.41.83.78-.27 2.99-1.93 3.79-2.55.38-.3.55-.37.9-.62 3.12-2.33 5.86-2.62 10.04-4.09l2.33-.93c-.23-.46-.34-.53-.58-.95l-8.09 2.76c.12-1.13.11-.43 1.13-1.77.42-.56.9-1.1 1.32-1.68.78-1.07 1.71-2.35 2.57-3.25l-.61-1.23c-.57.31-.09-.03-.55.41-.78.72-5.76 8.03-6.86 8.79-.79.54-1.22.87-1.98 1.41-.69.49-1.12.79-1.86 1.35l-1.96 1.52zM160.69 38.05l1.79 2.31c-.8.5-6.05 5.43-7.52 6.69-1.08.92-3.28 3.27-4.47 3.99l.63.97 12.19-10.87c.36.49 1.41 1.59 1.88 1.97.5-.42 1.22-.93 1.51-1.63l-4.28-4.73-1.73 1.3zM113.46 30.18l1.05.15c.32-.57 3.92-16.6 4.06-18.08l-1.07-.17-4.04 18.1zM146.47 47.2c.26.2.66.55.73.74 1.29-.97 9.37-10.19 11.09-11.71.6-.54 1.3-1.13 1.57-2-.61-.35-.23-.26-.97-.52-.49.55-.95 1.08-1.45 1.67L146.47 47.2zM61.68 18.09l7.56 16.93 1.02-.36-7.52-16.92zM83.92 186.37c.02-1.08-.2-2.17.06-3.14.27-1.04.46-1.72.61-2.97l-2.38.44c-.37 1.75-1.01 1.81-.13 3.29.71 1.19.77 1.78 1.84 2.38zM83.93 174.18c1.88.64 1.85.07 2.39-1.43.31-.88.87-2.1.94-3.07-.91.21-2.6 1.22-3.22 1.69l-.11 2.81zM82.54 178.52c.41-.08 1.99-.46 2.25-.69.4-.34.63-1.59.68-2.12-2.33.46-2.43.26-2.93 2.81zM52.86 164.52l1.9.09c.03-.04.09-.14.11-.11 0 0 .45-.34.55-.8l-1.88-.07c-.39.43-.49.15-.68.89zM110.88 173.45c.75 0 .7.2 1-.6.1-.28.26-.93.3-1.24-.67.07-.38-.01-.71.65-.26.53-.39.6-.59 1.19zM75.57 180.33c.89.01 1.03-.43 1.31-1.24-.32.09-.71.19-1 .38-.54.35-.48.13-.31.86z"/><g><path class="fil2" d="M24.44 147.38c-4.91-8.4-6.43-10.8-9.86-20.49-2.69-7.59-4.21-16.98-4.48-25.66-.41-12.85 2.3-26.55 7.43-37.99.83-1.85 4.2-8.96 5.18-9.81 1.03.73 14.02 10.72 14.58 11.42-.66 1.59-1.63 3.07-2.34 4.69-10.51 23.9-8.12 49.06 6.82 70.3 2.65 3.77 3.81 4.62 6.17 7.57l-23.5-.03zm135.92-82.7c.72-.56 1.14-.85 1.9-1.47.57-.47 1.25-.92 1.84-1.37l9.09-7.13c.7-.52 1.14-1.09 1.91-1.36.29.66.86 1.54 1.26 2.24 2.98 5.24 5.58 11.29 7.35 17.16 3.18 10.55 3.9 17.37 3.9 28.29-.01 11.38-3.78 26.96-8.96 36.8-.88 1.66-4.59 9.08-5.7 9.57l-23.16-.03 7.5-9.41c2.18-3.23 4.23-6.93 6.01-10.95 8.45-19.11 7.63-40.01-1.21-58.85-.48-1.03-1.5-2.6-1.73-3.49zm-101 42.46l-.03-2.15c.94-.52 2.42-1.03 3.5-1.54 6.13-2.86 9.85-6.15 14.32-10.93 1.48-1.58 2.83-3.82 4.1-5.89 2.4-3.9 4.44-9.66 5.18-14.99 1.07-7.64.24-11.13-1.79-17.79l54.52 4.83c-1.2 6.16-3.71 11.9-6.32 16.77-3.05 5.67-5 7.58-8.42 11.94-.49.61-.87.85-1.4 1.42-8.09 8.79-17.39 13.71-29.26 17.16.83.37 3.25.78 4.4 1.06 8.92 2.21 18.8 7.3 25.22 13.04 1.94 1.73 3.88 3.32 5.59 5.35.82.99 1.72 1.86 2.56 2.9 3.3 4.05 8.71 12.3 10.11 17.21l-43.05-3.88c-.48-.97-.95-2.28-1.4-3.3-1.21-2.74-3.32-6.42-4.9-8.86-2.88-4.44-4.78-6.57-8.33-10.15-7.3-7.33-14.11-10.44-24.6-12.2zm11.75-37.39c0-7.25-2.65-11.87-4.97-17.5l3.41.25c.37 1.1.98 2.28 1.44 3.46 3.61 9.23 4.42 18.09.05 27.25-.77 1.64-2.58 4.6-3.72 5.89-.81.92-1.34 1.82-2.15 2.55-2.76 2.51-2.63 2.82-6.36 5.71-.48.37-.93.64-1.33.94-.99.72-1.78 1.28-2.79 1.92-3.62 2.26-2.76.34-2.76 9.7 6.82 1.93 14.9 7.45 20.03 11.81l3.96 3.95c3.02 2.87 8.04 10.8 9.06 14.85l-3.24-.3c-.81-2.87-4.08-7.71-5.57-9.7-4.23-5.65-10.48-10.48-16.59-13.96-2.7-1.53-7.26-3.74-10.57-4.47v-11.63c.14-.55 3.5-2.36 4.01-2.67 5.36-3.36 6.56-4.83 10.55-8.87 4.22-4.29 7.55-11.1 7.54-19.18zm86.38-13.96c.74-.56 1.17-.86 1.86-1.35.76-.54 1.19-.87 1.98-1.41 1.1-.76 6.08-8.07 6.86-8.79.46-.44-.02-.1.55-.41l.61 1.23c-.86.9-1.79 2.18-2.57 3.25-.42.58-.9 1.12-1.32 1.68-1.02 1.34-1.01.64-1.13 1.77l8.09-2.76c.24.42.35.49.58.95l-2.33.93c-4.18 1.47-6.92 1.76-10.04 4.09-.35.25-.52.32-.9.62-.8.62-3.01 2.28-3.79 2.55-.16-.36-.24-.46-.41-.83l1.96-1.52zm6.58-4.2c-.04.02.07.07.08.08.01.01.03.04.04.04l-.12-.12zM41.26 58.13c-.17-.28-3.08-2.35-3.61-2.77-1.64-1.31-9.79-7.89-10.94-8.4l.71-.98c1.2.71 2.47 1.81 3.56 2.68l3.46 2.55-4.42-8.61c.31-.48.59-.88.99-1.14.58 1.43 1.39 2.85 2.13 4.29 1.53 2.97 1.02 2.88 2.89 3.52 1.55.53 3.12 1.1 4.74 1.67 1.46.51 3.33 1.3 4.83 1.65l-.76 1.3-9.23-3.29c2.69 4.85.67 1.86 5.55 5.97l.8.74c-.23.45-.31.5-.7.82zM166.7 41.48c-.29.7-1.01 1.21-1.51 1.63-.47-.38-1.52-1.48-1.88-1.97l-12.19 10.87-.63-.97c1.19-.72 3.39-3.07 4.47-3.99 1.47-1.26 6.72-6.19 7.52-6.69l-1.79-2.31 1.73-1.3 4.28 4.73zm-120.29 2.3c-1-1.09-2.03-1.99-3.03-2.99-1-.99-5.54-5.37-6.03-6.14l.61-.73c.74.39 2.93 2.79 3.67 3.53 2.41 2.39 10.47 8.97 7.58 12.05-2.66 2.84-7.77-2.96-8.76-3.9-2.39-2.3-4.62-4.69-6.99-6.9.26-.57.27-.6.85-.87.14.41 5.18 5.2 6 6.02.72.72 5.27 5.96 7.2 4.13 1.36-1.29-.46-3.49-1.1-4.2zm111.03-8.4c.5-.59.96-1.12 1.45-1.67.74.26.36.17.97.52-.27.87-.97 1.46-1.57 2-1.72 1.52-9.8 10.74-11.09 11.71-.07-.19-.47-.54-.73-.74l10.97-11.82zm-13.19 1.99c-.47 1.08-1.76 2.27-1.24 4.05.49 1.64 2.32 1.37 3.43.31 3.65-3.45-.25-4.4.43-7.86 1.03-5.27 8.45-7.89 7.86-2.57-.19 1.7-1.2 2.7-1.71 3.85l-1.06-.42c.37-1.09 1.86-2.69.76-3.94-1.25-1.4-2.73.02-3.4.82-2.43 2.89 2.07 4.05-.18 8.48-.78 1.51-3.72 5.21-6.38 4.25-3.01-1.08-1.04-6.16.62-7.44l.87.47zM54.4 38.39c-.47-.89-1.42-2.01-2.05-2.8-1.04-1.31-5.98-7.39-6.34-8.35l.63-.46c.79.39 7.56 9.44 8.73 10.88.94 1.16 2.04 2.49 2.8 3.66l-.73.71c-.97-.34-4.86-3.32-6.06-4.15-2.02-1.37-3.98-2.9-6.06-4.18.61 1.26 7.56 9.47 8.46 11.14l-.72.55c-.67-.47-2.36-2.79-2.96-3.6l-8.53-10.92.94-.73c.91.42 2.05 1.43 3.02 2.08 1.55 1.04 7.89 5.71 8.87 6.17zm-9.16-4.75c-.01 0 .11-.05 0 0zm87.14 3.51c.31-.99 1.76-3.08 2.37-4.09l7.05-11.81c.81.21 2.79 1.49 3.55 2.02 1.31.91 1.39 1.95.66 3.89-.88 2.33-2.57 5.12-5.48 5 .09 1.56-1.17 7.68-1.89 8.66l-1.13-.58c.38-2.34 2.09-6.31 1.68-8.59-.49-.33-1-.72-1.73-.97-.48 1.23-3.31 5.79-4.17 6.91l-.91-.44zM96.82 22.96c-.15 4.91 4.22 5.07 4.09-.02l.14-12.66c.01-.07.04-.08.06-.12.04-.02.09-.05.12-.06l.97-.05c.29 1.04.13 7.92.13 9.93l-.25 3.08c.46 7.68-6.91 7.97-6.44-.15-.11-.29-.02.36-.13-.47-.01-.07-.02-.28-.02-.37l-.06-2.47c.07-1.09.06-2.1.06-3.2 0-1.96-.13-4.45.05-6.43l1.22.08.06 12.91zm-46 .98c.63-.32.81-.51 1.6-.77.65.96 1.57 2.1 2.33 3.04 2.05 2.51 5.28 6.83 7.23 8.87l-5.5-14.4 1.35-.67 9.18 16.06-.91.43c-.79-.85-5.19-9.13-6.51-11.17-.04-.05-.18-.25-.24-.33-.34-.45-.08-.12-.26-.31.22 1.62 3.99 10.13 4.88 13.07l-.94.48c-.72-.98-1.51-1.85-2.33-2.9l-6.9-8.54 3.61 6.37c.66 1.1 3.31 5.42 3.57 6.4l-.97.39-9.19-16.02zM61.94 35.1c-.12.22.06-.1 0 0zm-8.21-8.4c.05.07.03-.19-.04-.06-.12.24.04.05.04.06zm5.4-2.03l-.36-.65.36.65zm73.35-8.01l5.53 2.41-.86 2.14-4.6-1.99-2.2 5.07 4.12 1.93-.94 1.94-4.18-1.8-2.54 5.6 4.71 2.12-1.01 2.02-5.65-2.5 7.62-16.94zm-69.74 1.08l7.52 16.92-1.02.36-7.56-16.93 1.06-.35zm58.94-4.73l1.22.3-2.26 16.02c.36-1.23 6.66-12.67 7.2-14.36l1.2.29-4.36 8.47c-.76 1.39-3.77 7.48-4.36 8.23l-1.07-.33 2.43-18.62zm-47.79 11.4c.51.77 1.59 2.32 2.21 2.9-.52-2.67-4.38-11.47-4.32-13.1l.94-.26 6 17.51-1.24.31c-.42-.98-7.83-11.05-8.42-11.62.53 2.47 4.4 11.75 4.32 13.14l-.93.26-6-17.5.97-.32c.44.42.76.82 1.14 1.39l5.33 7.29zm2.25 2.99c.09.18.07-.36-.04-.09l.04.09zm-7.16-7.42c.08.51-.05-.31 0 0zm17.47.02c.41 1.74.74 3.62 1.14 5.43.43 2-.63 3.87-1.62 4.45-5.65 3.37-9.24-12.28-6.92-16.71.82-1.55 2.55-2.34 4.31-1.04.73.54 1.99 2.86 2.12 4.26l-.75.56c-.72-.87-.56-1.73-1.71-2.8-1.11-1.05-2.27-.4-2.85.53-1.57 2.5.19 12.86 3.66 13.38 1.32.2 2.22-.99 2.5-1.97.24-.81-.36-2.7-.52-3.67l-2.45.38-.41-2.09 3.5-.71zm31.05-7.92l1.07.17c-.14 1.48-3.74 17.51-4.06 18.08l-1.05-.15 4.04-18.1zm-12.9 16.67c-.3-1.36 1.95-15.59 2.21-18.36 1.08.07 1.18-.03 1.37 1.05.48 2.74 1.84 12.29 2.33 13.49.39-2.22 1.41-12.8 1.93-13.83l.89.09c.14 1.13-1.95 15.9-2.26 18.38l-1.08-.16c-.43-.81-2.24-12.55-2.61-14.5l-1.81 13.91-.97-.07zm72.01 126.06c.43-.92 1.13-1.72 1.8-2.69 4.01-5.93 8.25-14.25 10.57-20.92 4.38-12.62 5.65-21.02 5.65-34.68 0-13.05-3.96-27.97-8.89-38.23-3.59-7.48-6.5-12.17-11.12-18.29l-5.32-6.37c-1.11-1.09-1.89-2.05-2.87-2.97-2.04-1.91-4.01-3.68-6.25-5.63-1.35-1.18-5.13-4.18-6.61-5.09-1.23-.76-2.35-1.65-3.61-2.41-14.73-8.94-31.06-14.85-49.58-14.85H96.8c-18.4 0-39.28 7.18-53.24 17.41-1.14.84-2.27 1.63-3.4 2.46l-6.32 5.36c-.96.99-2.06 1.8-3.05 2.79l-5.61 6.27c-5.47 6.74-10.03 13.12-13.67 21.38C6.6 69.48 2.68 82.6 2.68 96.52c0 13.53 1.33 22.45 5.71 34.87 1.43 4.08 3.58 8.96 5.59 12.5.8 1.43 6.03 10.68 7.04 10.92 14.25.01 28.54.1 42.79 0 1.24-.01 1.34.02 2.23.55.68.41 1.05.58 1.7.95 1.19.66 2.25 1.18 3.51 1.76 15.35 7.03 31.03 7.79 47.11 3 4.62-1.38 7.33-2.8 11.39-4.84 1.61-.8 1.74-1.44 3.8-1.42 14.33.12 28.72 0 43.06 0z"/><path class="fil2" d="M151.64 166c.54 2.47 3.95 4.38-.07 6.6-1.91 1.05-3.14 1.91-3.9-1.02-.28-1.07-.12-.87-.63-1.27-.56-.43-.5-.03-.73-.99-.68-2.9 1.45-3.11.88-5.61-.95-.31-.91-.41-1.75.07.35-.87.49-1.04.76-2.01.3-1.13.73-1.06.96-1.7.46-1.33-2.04-1.93-3.28-1.57-.38 1.16.13 1.28-.6 2.22-.89 1.13-2.38 2.5-3.06 3.53-.42.64-.29.15-.34 1.17 1.9-.16 1.72-.78 2.47-2.06.51-.87 1.53-1.62 1.84-2.07.47.5.45 1 .71 1.74.26.71.69.87.14 1.36l-.55-1.03c-.92.24-3.01 2.74-3.16 3.09.51.87 1.54 1.36 2.34.32l1.38-2.38c-.05 1.04-.55 1.91-1.08 2.68-.95 1.37-.81.9-1.95 1.74-.05 1.23.11 1.79.96 2.11.6-.91.79-1.71 1.64-2.14.55 1.38-.46 7.01-.26 8.17.11.63.62 1.44 1.22 1.43.78-.86-.07-4.54.48-7.01 2.55 5.35 2.14 5.53 8.46 2.1.96-.52 3.89-1.44 1.49-4.21l-3.12-2.54c-.55-.29-.75-.42-1.25-.72zM83.92 186.37c-1.07-.6-1.13-1.19-1.84-2.38-.88-1.48-.24-1.54.13-3.29l2.38-.44c-.15 1.25-.34 1.93-.61 2.97-.26.97-.04 2.06-.06 3.14zm-1.38-7.85c.5-2.55.6-2.35 2.93-2.81-.05.53-.28 1.78-.68 2.12-.26.23-1.84.61-2.25.69zm1.11-7.16zm.28 2.82l.11-2.81c.62-.47 2.31-1.48 3.22-1.69-.07.97-.63 2.19-.94 3.07-.54 1.5-.51 2.07-2.39 1.43zm1.74 13.01c.01-1.07.21-2.04.22-3.01.07-5.86.35-7.14 2.08-12.98 1.22-4.1 2.04-2.24 1.99-3.94-1.34-.19-1.32.08-2.26.65-.65.39-1.17.63-1.82 1-4.06 2.34-3.54 1.36-3.56 4.52-.01 2.33-.37 3.16-1.02 5.24-1.31 4.19-1.23 4.49-3.19 8.68-1.17 2.51-3.1 1.73-3.61 1.84.18.06 2.46 2.97 4.41-.47.37-.65.91-1.75 1.23-2.55.18-.46.34-.86.52-1.35l.58-1.21c.01-.07.06-.08.1-.12.49.97 1.93 6.13 3.23 6.37 1.44.26 1.1-1.1 1.1-2.67zM52.86 164.52c.19-.74.29-.46.68-.89l1.88.07c-.1.46-.55.8-.55.8-.02-.03-.08.07-.11.11l-1.9-.09zm1.4-2.45c.44-1.68 1.22-1.35 1.25-3.03-2.33.14-5.05 3.86-5.66 5.91-.22.73.52 1.82.85 2.49.75-.22.53-.4 1.04-.93 1.51.1.38.17.75 1.85 1.58-.06 2.21-1.12 3.02-1.9 2.21-2.13 4.32-4.42 7.41-4.84 1.14-.15 1.1-.1 1.03-1.39-1.69-.96-5.75-1.77-7.44-.38.55.66 1.6.9 2.66 1.09-.4.81-.41.43-1.12.89-.62.4-.29.38-1.03.73-.91.1.07-.91-2.76-.49zM114.87 182.48c-.31-.89-.74-1.03-.18-1.89.47-.71.73-.94.77-1.9-1.71-.78-1.7-.46-3.17.43-.68.41-2 1.62-2.06 2.37 1.04.46 2.3.13 3.1-.27.3.46.55 1.28.58 1.98-1.26.59-3.2 1.66-4.24 2.53-.73.61-.81.44-1.39.83l.13 1.07c.62.21 1.36.14 1.95-.06.83-.29.72-.33 1.27-.82.79-.69 1.39-1.5 2.59-1.83.07 4.93-.14 5.26-5.32 4.86.19.29 5.51 3.83 6.48 2.05.03-.07.12-.35.14-.43.92-3.49-.09-3.23 0-7.18.53-.39 1.84-1.2 2.77-1.16 1.3.05 1.03 1.32 2.56.28.08-1.33-1.19-2.24-2.57-2.22-.82.01-2.16 1.05-3.41 1.36z"/><path class="fil2" d="M111.95 175.58c.45-.1 1.4-.08 2.2-.05l-2.99 1.24c.16-.25.57-.84.79-1.19zm-1.07-2.13c.2-.59.33-.66.59-1.19.33-.66.04-.58.71-.65-.04.31-.2.96-.3 1.24-.3.8-.25.6-1 .6zm5.08.59c.56-8.15 2.44-8.39-.02-7.11-.9.47-1.61.72-2 1.55 1.09-.1 1.46-.65 2.2-.64-.58 2.94-1.08 2.41-1.69 2.76l-.03 2.53c.33.31.32.23.71.49l-.16 1.74c-.89.22-1.26-.26-2.12-1.11.25-.8.57-1.68.51-2.7-.1-1.52-.3-1.17-1.3-1-.02-1.23.74-2.6 0-2.6-.56 0-.17.16-.84 1.8-.64 1.61-.74 1.02-1.25 1.49 1.39 1.01-.33 1.56-.16 3.46.26-.24.2-.27.4-.48.39-.4.05-.2.53-.4.68.8.64.76.01 2.45-.54 1.44-.12.9-1.51 1.73l-.55-1.38c-1.2-1.98-.61-4.05-1.34-5.27-.07.08-.27.1-.35.98-.08.89.58 5.41 1.75 6.09-.85.87-1.97 1.23-2.69 2.17 2.93.19 2.89-.6 5.21-2.3 3.43-2.52 3.06-1.75 4.24-1.62.1-.79.12-1.26 1.92-1.92-.28 1.3-.75 1.74-.65 3.29 1.65-.83 3.43-3.24 3.17-5.17-2.24-.32-1.98.68-3.99 1.17zM138.4 172.12c0 .26.12.39.12.4.08.8.31-.65-.09.24-.27-.98-.71-1.03-.98-2.27-.3-1.34-.3-1.01-1.64-1.44.76-1.08-.55-1.56.76-2.57.78 1.21-.41 2.19 1.33 2.99 1.02.47 1.46 1.04 1.8 2.26-.43.34-.64.32-1.3.39zm-2.59-3.07c-.3.95-.35.91.21 1.9l4.98 8.6c.15.35-.03 2.53 2.77 2.61-.14-2.21-1.65-3.47-2.5-4.95-.54-.94-2.46-3.72-2.62-4.54 1.23.29 1.73 1.58 2.65 1.84 1.58-1.29.13-3.5-.9-4.91-1.07-1.45-2.07-.64-2.3-2.42-.14-1.12.1-1.26.27-2.16.25-1.34-1.44-2.4-2.07-2.53-.75.72-2.69 3.98-2.3 5.94.23 1.17-.06.73 1.81.62zM75.57 180.33c-.17-.73-.23-.51.31-.86.29-.19.68-.29 1-.38-.28.81-.42 1.25-1.31 1.24zm-.26-3.2c-.03-.05-.04-.12-.06-.17l-.56-2.25c.98.05 1.15.21 1.95-.14.78-.33.46-.42 1.62-.12l-.71 2.19c-1.38-.01-1.11.2-2.24.49zm2.07 6.34c.52-.3.63-.76.76-1.38l.99-5.02c1.45-5.05 2.48-4.01 2.79-5.34-1.55-1.42-2.53-.04-3.12.28-1.11.61-3.2 1.48-4.03 2.34l-.46.76c-.66 2.01-.7 3.26-.92 5.46-.11 1.04-.53 1.56 0 2.49 1.53 2.64 1.79.33 3.05-.41.03.04.06.1.08.12l.26.32c.02.03.06.07.09.1.33.28-.13.06.51.28zM57.49 173.72c-1.88 2.23-2.58 5.01-6.22 3.19-1.13-.56-2.64-1.17-3.27-1.97.4-1.17.96-1.56 1.79-2.33 3.04-2.85 1.3-1.77 4.4-1.73.85.01 1.7 0 2.55-.04-.26-1.31-.41-.88-1.46-.97-.83-.07-1.55-.12-2.41-.17l-.37-1.18c-1.4.4-1.92 1.19-2.95 1.95l-2.45 2.46c-1.75 2.24 1.35 4.38 3.25 5.29 7.41 3.57 6.11-1.16 8.01-4.22l1.55-2.76c.27-.31.44-.08.12-.47l-2.54 2.95zM45.47 168.72c.42-1.06.72-.39.57-1.87-2.07.08-5.22 5.26-5.22 5.26.14.53.53 1.32.93 1.68 1.03.12 2.73-.35 3.49-.83.62-.39 2.1-1.49 2.37-2.08l-4.43 1.11c.24-.73 1.59-1.14 2.11-3.1 1 .68.41 1.11 1.63 1.29 1.3.19 2.31-.41 3.31-.84-.76-1.18-3.67-.76-4.76-.62zM138.76 28.9c1.62.51 3.2 3.14 5.3-.49 1.84-3.17 0-3.51-2.16-4.76-.39.4-2.93 4.57-3.14 5.25zM105.87 180.96c-.83-.04-1.12.27-1.48.82-1.11 1.72.58 3.69 1.93 2.7-.34-1.64-.24-2.98-.45-3.52zM142.25 160.16c-.44-.27-2.81-1.7-2.88-.13l1.35 3.09c.62-.47 1.47-2.22 1.53-2.96z"/><path class="fil2" d="M141.2 167.83c-.07-.86-.92-1.23-1.38-1.99-.11-.2-.13-.28-.29-.49-.26-.33.05-.04-.32-.29-.82 1.28-.28 1.62-.06 2.8 1.03.39 2.14 1.09 2.05-.03zM108.28 169.48c-.15 1.7.61 6.64 1.54 7.48.17-1.04-.36-2.85-.55-3.95-.11-.65-.22-1.29-.31-1.98-.15-1.21-.16-1.22-.68-1.55z"/></g></g></g></svg>